<svg xmlns="http://www.w3.org/2000/svg" width="138.574" height="126.597"><defs><style>.cls-1{fill:#2b4d84}</style></defs><g id="그룹_187" data-name="그룹 187" transform="translate(-1013.528 193.571)"><g id="그룹_170" data-name="그룹 170" transform="translate(1091.294 -193.571)"><path id="패스_324" data-name="패스 324" class="cls-1" d="M1089.384-174.861a9.365 9.365 0 0 1-9.355-9.355 9.365 9.365 0 0 1 9.355-9.355 9.366 9.366 0 0 1 9.355 9.355 9.366 9.366 0 0 1-9.355 9.355Zm0-15.2a5.854 5.854 0 0 0-5.847 5.847 5.854 5.854 0 0 0 5.847 5.847 5.854 5.854 0 0 0 5.847-5.847 5.854 5.854 0 0 0-5.847-5.849Z" transform="translate(-1080.029 193.571)"/></g><g id="그룹_171" data-name="그룹 171" transform="translate(1113.22 -179.242)"><path id="패스_325" data-name="패스 325" class="cls-1" d="M1125.091-177.81h-24.557a1.754 1.754 0 0 1-1.754-1.754 1.754 1.754 0 0 1 1.754-1.754h24.557a1.755 1.755 0 0 1 1.754 1.754 1.755 1.755 0 0 1-1.754 1.754Z" transform="translate(-1098.779 181.318)"/></g><g id="그룹_172" data-name="그룹 172" transform="translate(1116.729 -189.767)"><path id="패스_326" data-name="패스 326" class="cls-1" d="M1115.227-186.81h-11.694a1.754 1.754 0 0 1-1.754-1.754 1.754 1.754 0 0 1 1.754-1.754h11.694a1.755 1.755 0 0 1 1.754 1.754 1.755 1.755 0 0 1-1.754 1.754Z" transform="translate(-1101.779 190.318)"/></g><g id="그룹_173" data-name="그룹 173" transform="translate(1054.319 -147.316)"><path id="패스_327" data-name="패스 327" class="cls-1" d="M1070.475-127.473h-17.235c-2.587-.041-4.831-2.648-4.831-5.58h3.508c0 1.123.895 2.065 1.351 2.072h15.453v-3.508h-9.94a1.754 1.754 0 0 1-1.754-1.754v-11.481a3.124 3.124 0 0 0-1.146-2.314 1.716 1.716 0 0 0-1.374-.448l-.717-3.436a5.189 5.189 0 0 1 4.3 1.162 6.663 6.663 0 0 1 2.442 5.035V-138h9.94a1.755 1.755 0 0 1 1.754 1.754v7.016a1.755 1.755 0 0 1-1.751 1.757Z" transform="translate(-1048.41 154.017)"/></g><g id="그룹_174" data-name="그룹 174" transform="translate(1013.528 -121.17)"><path id="패스_328" data-name="패스 328" class="cls-1" d="M1026.2-97.7c-6.108-7.469-10.753-21.4-12.647-31.888a1.758 1.758 0 0 1 .449-1.513 1.72 1.72 0 0 1 1.482-.54l126.3 14.853a1.75 1.75 0 0 1 1.272.8 1.753 1.753 0 0 1 .192 1.487l-5.262 16.236-3.336-1.083 4.6-14.2-121.785-14.323c2.029 9.685 6.176 21.5 11.454 27.954Z" transform="translate(-1013.528 131.658)"/></g><g id="그룹_175" data-name="그룹 175" transform="translate(1122.299 -100.184)"><path id="사각형_7012" data-name="사각형 7012" class="cls-1" transform="rotate(-82.632 1.979 1.74)" d="M0 0h3.507v15.086H0z"/></g><g id="그룹_176" data-name="그룹 176" transform="translate(1019.161 -110.357)"><path id="사각형_7013" data-name="사각형 7013" class="cls-1" transform="rotate(-84.373 1.926 1.746)" d="M0 0h3.509v90.748H0z"/></g><g id="그룹_177" data-name="그룹 177" transform="translate(1025.487 -74.054)"><path id="패스_329" data-name="패스 329" class="cls-1" d="M1023.755-84.287V-87.8c5.364 0 10.866-3.282 10.922-3.316a1.751 1.751 0 0 1 1.809 0c.056.034 5.59 3.315 10.93 3.315 5.366 0 10.873-3.283 10.928-3.316a1.754 1.754 0 0 1 .906-.253 1.876 1.876 0 0 1 1.1.377 18.339 18.339 0 0 0 9.618 3.189h.434a18.332 18.332 0 0 0 9.62-3.189 1.881 1.881 0 0 1 1.1-.377 1.754 1.754 0 0 1 .964.289 22.481 22.481 0 0 0 10.554 3.281h.151c5.5 0 10.665-3.257 10.718-3.29a1.765 1.765 0 0 1 .946-.277 1.873 1.873 0 0 1 1.1.377 18.343 18.343 0 0 0 9.62 3.189h.434a18.336 18.336 0 0 0 9.62-3.189 1.874 1.874 0 0 1 1.1-.377 1.773 1.773 0 0 1 .9.251c.055.034 5.59 3.316 10.929 3.318v3.508c-4.936 0-9.76-2.227-11.769-3.281a21.156 21.156 0 0 1-10.781 3.278h-.435a21.134 21.134 0 0 1-10.764-3.265 25.27 25.27 0 0 1-11.81 3.265 25.338 25.338 0 0 1-11.445-3.26 21.135 21.135 0 0 1-10.75 3.26h-.435a21.152 21.152 0 0 1-10.787-3.277c-2.011 1.055-6.834 3.279-11.768 3.28-4.988 0-9.863-2.272-11.834-3.314-1.967 1.042-6.839 3.315-11.825 3.317Z" transform="translate(-1023.755 91.367)"/></g><g id="그룹_178" data-name="그룹 178" transform="translate(1025.487 -84.578)"><path id="패스_330" data-name="패스 330" class="cls-1" d="M1023.755-93.287V-96.8c5.364 0 10.866-3.282 10.922-3.316a1.754 1.754 0 0 1 1.809 0c.056.034 5.59 3.315 10.93 3.315 5.366 0 10.873-3.283 10.928-3.316a1.754 1.754 0 0 1 .906-.253 1.876 1.876 0 0 1 1.1.377 18.339 18.339 0 0 0 9.618 3.189h.434a18.332 18.332 0 0 0 9.62-3.189 1.882 1.882 0 0 1 1.1-.377 1.754 1.754 0 0 1 .964.289 22.482 22.482 0 0 0 10.554 3.281h.151c5.5 0 10.665-3.257 10.718-3.29a1.765 1.765 0 0 1 .946-.277 1.873 1.873 0 0 1 1.1.377 18.343 18.343 0 0 0 9.62 3.189h.434a18.336 18.336 0 0 0 9.62-3.189 1.874 1.874 0 0 1 1.1-.377 1.773 1.773 0 0 1 .9.251c.055.034 5.59 3.316 10.929 3.318v3.508c-4.936 0-9.76-2.227-11.769-3.281a21.156 21.156 0 0 1-10.781 3.278h-.435a21.134 21.134 0 0 1-10.764-3.265 25.617 25.617 0 0 1-11.62 3.266h-.189a25.338 25.338 0 0 1-11.445-3.26 21.135 21.135 0 0 1-10.75 3.26h-.435a21.152 21.152 0 0 1-10.787-3.277c-2.011 1.055-6.834 3.279-11.768 3.28-4.988 0-9.863-2.272-11.834-3.314-1.968 1.041-6.84 3.314-11.826 3.316Z" transform="translate(-1023.755 100.367)"/></g><g id="그룹_179" data-name="그룹 179" transform="translate(1075.345 -134.14)"><path id="패스_331" data-name="패스 331" class="cls-1" d="M1070.55-128.756a7.062 7.062 0 0 1-4.16-.967l2.078-2.826c.74.529 4.178.193 5.308.082.686-.067 1.259-.119 1.623-.123a19.227 19.227 0 0 0 3.015-.32.742.742 0 0 0 .588-.578c.135-.614.209-1.062.249-1.382a29.894 29.894 0 0 0-3.357-.068 1.673 1.673 0 0 1-1.268-.482 1.755 1.755 0 0 1-.546-1.242l-.029-1.822a19.937 19.937 0 0 1-6.587 2.086l-.069-3.508a17.8 17.8 0 0 0 5.39-1.864 13.151 13.151 0 0 1 2.574-.932 1.758 1.758 0 0 1 1.48.32 1.753 1.753 0 0 1 .679 1.357l.042 2.557c3.333.034 4.039.569 4.329.791 1.162.878 1.068 2.542.539 4.942a4.238 4.238 0 0 1-3.406 3.28 22.585 22.585 0 0 1-3.588.373c-.3 0-.76.051-1.318.106-1.239.121-2.452.22-3.566.22Z" transform="translate(-1066.39 142.749)"/></g><g id="그룹_180" data-name="그룹 180" transform="translate(1064.272 -168.193)"><path id="패스_332" data-name="패스 332" class="cls-1" d="M1062.107-153.777a8.436 8.436 0 0 1-1.133-.074 5.853 5.853 0 0 1-4.053-2.217l2.811-2.1a2.516 2.516 0 0 0 1.692.835 5.2 5.2 0 0 0 2.982-.464 2.952 2.952 0 0 0 .529-1.553 1.829 1.829 0 0 1 .048-.3l.464-1.852a1.756 1.756 0 0 1 .75-1.047s.41-.267 1.087-.751c-.088-.279-.191-.589-.278-.855-.638-1.927-1.044-3.271-.89-4.335a33.9 33.9 0 0 0 .336-3.385l3.506.117c-.049 1.494-.295 3.267-.37 3.776a15.535 15.535 0 0 0 .748 2.725c.651 1.966 1.082 3.266-.117 4.157-.641.479-1.166.85-1.532 1.1l-.269 1.066a5.877 5.877 0 0 1-1.85 3.893 7.713 7.713 0 0 1-4.461 1.264Z" transform="translate(-1056.921 171.869)"/></g><g id="그룹_181" data-name="그룹 181" transform="translate(1048.903 -176.913)"><path id="패스_333" data-name="패스 333" class="cls-1" d="M1047.287-118.508h-3.508v-22.514c0-4.1 1.679-8 5.136-11.9a17.069 17.069 0 0 1 2.111-1.9c1.668-1.345 2.762-2.3 2.835-3.618a9.9 9.9 0 0 1-2.48-4.124 1.753 1.753 0 0 1-.095-.554c0-.281-.037-6.889.133-9.262.184-2.568 3.219-4.384 5.734-5.455 1.044-.444 6.358-2.575 8.506-.785.413.345 1.148 1 2.013 1.775a68.888 68.888 0 0 0 5.288 4.466l-1.329 3.244c-.9-.347-2.6-1.787-6.3-5.1a118.438 118.438 0 0 0-1.787-1.582c-.9-.153-4.177.558-6.76 2.072-1.416.83-1.836 1.468-1.871 1.624-.138 1.955-.128 7.358-.123 8.682a5.337 5.337 0 0 0 1.694 2.609 1.748 1.748 0 0 1 .8 1.2c.628 3.763-2.08 5.945-4.057 7.539a14.767 14.767 0 0 0-1.685 1.492c-2.863 3.235-4.254 6.367-4.254 9.576Z" transform="translate(-1043.779 179.326)"/></g><g id="그룹_182" data-name="그룹 182" transform="translate(1053.872 -170.767)"><path id="패스_334" data-name="패스 334" class="cls-1" d="M1049.783-161.208a1.753 1.753 0 0 1-1.629-1.1 1.752 1.752 0 0 1 .978-2.279l23.388-9.355a1.752 1.752 0 0 1 2.279.978 1.753 1.753 0 0 1-.978 2.279l-23.388 9.355a1.744 1.744 0 0 1-.65.122Z" transform="translate(-1048.028 174.071)"/></g><g id="그룹_183" data-name="그룹 183" transform="translate(1086.966 -157.902)"><path id="패스_335" data-name="패스 335" class="cls-1" d="m1136.6-91.538-3.137-1.568c.044-.09 4.493-9.075 4.493-15.588 0-7.824-3.491-12.082-7.185-16.588-2.583-3.152-5.254-6.408-6.758-10.922-3.162-9.484-.667-18.451 1.1-22.955-14.117 2.539-36.654 14.524-45.981 26.962l-2.808-2.106c10.843-14.455 37.063-27.555 51.542-28.761a1.774 1.774 0 0 1 1.617.794 1.753 1.753 0 0 1 .065 1.8c-.061.111-6.124 11.419-2.212 23.156 1.3 3.9 3.652 6.77 6.143 9.807 3.925 4.786 7.981 9.735 7.981 18.813.005 7.347-4.66 16.758-4.86 17.156Z" transform="translate(-1076.328 163.069)"/></g><g id="그룹_184" data-name="그룹 184" transform="translate(1093.551 -135.795)"><path id="사각형_7014" data-name="사각형 7014" class="cls-1" transform="rotate(-44.523 3.005 1.23)" d="M0 0h3.508v4.169H0z"/></g><g id="그룹_185" data-name="그룹 185" transform="translate(1067.321 -152.109)"><path id="패스_336" data-name="패스 336" class="cls-1" d="M1064.621-140.706a24.576 24.576 0 0 0-4.671-11.538 1.757 1.757 0 0 1-.4-1.387l.634-4.483 3.474.491-.53 3.751a28.97 28.97 0 0 1 4.969 12.66Z" transform="translate(-1059.528 158.115)"/></g><g id="그룹_186" data-name="그룹 186" transform="translate(1072.709 -121.65)"><path id="사각형_7015" data-name="사각형 7015" class="cls-1" transform="rotate(-3.27 3.506 .1)" d="M0 0h3.507v8.096H0z"/></g></g></svg>