<svg xmlns="http://www.w3.org/2000/svg" width="130.922" height="132.12"><defs><style>.cls-1{fill:#2b4d84}</style></defs><g id="그룹_169" data-name="그룹 169" transform="translate(-801.254 180.21)"><g id="그룹_153" data-name="그룹 153" transform="translate(810.869 -82.427)"><path id="사각형_7009" data-name="사각형 7009" class="cls-1" transform="rotate(-11.618 3.45 .351)" d="M0 0h3.484v32.979H0z"/></g><g id="그룹_154" data-name="그룹 154" transform="translate(846.868 -68.688)"><path id="사각형_7010" data-name="사각형 7010" class="cls-1" transform="rotate(-78.398 11.382 9.283)" d="M0 0h18.952v3.484H0z"/></g><g id="그룹_155" data-name="그룹 155" transform="translate(806.141 -77.747)"><path id="패스_312" data-name="패스 312" class="cls-1" d="M813.373-75.749c-3.1 0-5.351-.924-6.684-2.746-2.015-2.755-.971-6.3-.845-6.7l3.321 1.054a4.6 4.6 0 0 0 .345 3.6c.642.869 1.942 1.309 3.863 1.309 5.333 0 12.406-6.476 16.164-12.737l2.987 1.792c-4.303 7.17-12.264 14.428-19.151 14.428Z" transform="translate(-805.462 91.969)"/></g><g id="그룹_156" data-name="그룹 156" transform="translate(808.802 -92.215)"><path id="패스_313" data-name="패스 313" class="cls-1" d="M840.413-93.978H809.5a1.742 1.742 0 0 1-1.742-1.742v-6.967a1.742 1.742 0 0 1 1.742-1.742h41.8v3.484h-40.06v3.484h29.176Z" transform="translate(-807.754 104.429)"/></g><g id="그룹_157" data-name="그룹 157" transform="translate(801.254 -51.574)"><path id="사각형_7011" data-name="사각형 7011" class="cls-1" d="M0 0h126.568v3.484H0z"/></g><g id="그룹_158" data-name="그룹 158" transform="translate(826.23 -180.157)"><path id="패스_314" data-name="패스 314" class="cls-1" d="m826-104.539-3.239-1.284c16.735-42.213 57.563-66.08 90.192-74.341l.855 3.377c-31.793 8.049-71.556 31.255-87.808 72.248Z" transform="translate(-822.763 180.164)"/></g><g id="그룹_159" data-name="그룹 159" transform="translate(818.297 -106.144)"><path id="패스_315" data-name="패스 315" class="cls-1" d="m819.229-100.77-3.3-1.127 3.8-11.122a4.882 4.882 0 0 1 6.076-3.194 4.892 4.892 0 0 1 3.251 6.094l-1.045 3.425-3.331-1.016 1.044-3.424a1.4 1.4 0 0 0-.934-1.746 1.4 1.4 0 0 0-1.746.934Z" transform="translate(-815.931 116.424)"/></g><g id="그룹_160" data-name="그룹 160" transform="translate(833.437 -114.244)"><path id="패스_316" data-name="패스 316" class="cls-1" d="M836.994-107.353a8.033 8.033 0 0 1-8.024-8.024 8.032 8.032 0 0 1 8.024-8.024 8.032 8.032 0 0 1 8.024 8.024 8.032 8.032 0 0 1-8.024 8.024Zm0-12.564a4.545 4.545 0 0 0-4.54 4.54 4.545 4.545 0 0 0 4.54 4.54 4.545 4.545 0 0 0 4.54-4.54 4.545 4.545 0 0 0-4.54-4.539Z" transform="translate(-828.97 123.4)"/></g><g id="그룹_161" data-name="그룹 161" transform="translate(839.638 -180.21)"><path id="패스_317" data-name="패스 317" class="cls-1" d="M908.145-90.047a25.212 25.212 0 0 1-6.1-.79l.847-3.379c3.62.9 10.348 1.721 14.676-3 3.616-3.947 6.468-12.887-.49-33.063a144.4 144.4 0 0 1-7.32-42.367 24.347 24.347 0 0 1-9.064 7.294c-6.045 2.591-13.862 1.893-17.206 1.421-1.929 6.635-5.857 12.416-10.708 15.672-7.257 4.871-15.747 5.867-19.753 6.054a29.89 29.89 0 0 1-1.685 17.841c-3.225 7.255-14.976 13.168-15.475 13.416l-1.552-3.118c.112-.056 11.129-5.6 13.844-11.714 3.848-8.659 1.015-17.5.985-17.592a1.744 1.744 0 0 1 .264-1.592 1.676 1.676 0 0 1 1.458-.7c.11.013 11.261.353 19.973-5.494 4.522-3.035 8.139-8.7 9.676-15.158a1.74 1.74 0 0 1 2.034-1.3c.1.02 10.039 1.945 16.773-.942 6.667-2.856 10.607-10.617 10.646-10.7a1.738 1.738 0 0 1 2-.906 1.74 1.74 0 0 1 1.3 1.766c-.01.233-.99 23.492 7.106 46.973 7.516 21.8 4.021 31.909-.236 36.554-2.905 3.171-7.107 4.824-11.993 4.824Z" transform="translate(-834.31 180.21)"/></g><g id="그룹_162" data-name="그룹 162" transform="translate(881.494 -112.736)"><path id="패스_318" data-name="패스 318" class="cls-1" d="M873.537-101.725A14.635 14.635 0 0 1 870.8-114.2c.719-2.534 2.659-5.961 7.827-7.9l1.223 3.262c-3.055 1.146-4.973 3.026-5.7 5.588-.951 3.356.39 7.137 2.141 9.394Z" transform="translate(-870.357 122.102)"/></g><g id="그룹_163" data-name="그룹 163" transform="translate(855.685 -87.472)"><path id="패스_319" data-name="패스 319" class="cls-1" d="M878.349-60.994a32.128 32.128 0 0 1-11.685-2.171 28.861 28.861 0 0 1-18.48-29.028 39.2 39.2 0 0 1 1.346-8.15l3.357.93a35.85 35.85 0 0 0-1.226 7.425 25.43 25.43 0 0 0 16.276 25.581c9.988 3.918 25.055 2.773 37.385-12.2a1.74 1.74 0 0 1 1.345-.635c5.063 0 9.6-.327 13.221-3.9L907.737-87.2a1.737 1.737 0 0 1-1.067-1l-2.535-6.339c-1.9 1.137-4.741 3.467-3.885 6.89l-3.379.845c-1.576-6.3 4.235-10.451 7.528-11.766a1.739 1.739 0 0 1 2.263.971l2.943 7.356 13.825 4.608a1.745 1.745 0 0 1 1.107 1.117 1.746 1.746 0 0 1-.244 1.553c-4.592 6.381-10.552 7.153-16.81 7.206-9.207 10.844-19.828 14.765-29.134 14.765Z" transform="translate(-848.13 100.344)"/></g><g id="그룹_164" data-name="그룹 164" transform="translate(860.697 -112.976)"><path id="패스_320" data-name="패스 320" class="cls-1" d="M880.21-68.526a15.716 15.716 0 0 1-3.6-.4 12.052 12.052 0 0 1-7.8-5.762c-2.234-3.725-2.5-8.385-.748-13.122a22.716 22.716 0 0 1 13.8-13.38 1.7 1.7 0 0 1 .974-.037c6.023 1.5 8.6.359 9.446-.221v-5.326a1.741 1.741 0 0 1 .67-1.373 1.736 1.736 0 0 1 1.5-.317 7.514 7.514 0 0 0 5.826-1.482 6.036 6.036 0 0 0 2.127-2.236c-1.259-1.872-10.892-7.556-21.266-6.525-11.866 1.187-20.742 6.356-25.668 14.952l-3.023-1.732c5.51-9.613 15.31-15.382 28.343-16.685 9.731-.985 19.7 3.492 23.377 6.82a4.321 4.321 0 0 1 1.762 3.041c0 2.157-2.146 4.068-3.069 4.788a12.416 12.416 0 0 1-7.091 2.68v4.144a1.744 1.744 0 0 1-.293.966c-.3.452-3.2 4.3-12.971 2.008A19.192 19.192 0 0 0 871.328-86.6c-1.377 3.726-1.212 7.321.469 10.122a8.57 8.57 0 0 0 5.6 4.162c7.536 1.774 17.807-4.669 17.909-4.735l1.872 2.938c-.407.261-8.872 5.587-16.968 5.587Z" transform="translate(-852.446 122.308)"/></g><g id="그룹_165" data-name="그룹 165" transform="translate(894.887 -107.142)"><circle id="타원_18" data-name="타원 18" class="cls-1" cx="1.742" cy="1.742" r="1.742"/></g><g id="그룹_166" data-name="그룹 166" transform="translate(850.323 -115.17)"><path id="패스_321" data-name="패스 321" class="cls-1" d="m846.977-93.253-3.465-.347c1.274-12.74 6.3-25.153 12.217-30.182a1.733 1.733 0 0 1 1.526-.368l16.973 3.983-.8 3.391-16.082-3.774c-4.938 4.802-9.246 16.05-10.369 27.297Z" transform="translate(-843.512 124.198)"/></g><g id="그룹_167" data-name="그룹 167" transform="translate(871.278 -98.13)"><path id="패스_322" data-name="패스 322" class="cls-1" d="M867.386-98.26c-1.212 0-3.594-.165-4.947-1.361a2.562 2.562 0 0 1-.872-2.163c.2-2.637 4.817-5.981 7.55-7.739l1.885 2.93a27.252 27.252 0 0 0-5.658 4.618 8.884 8.884 0 0 0 2.491.221l.2 3.479c-.135.006-.357.015-.649.015Z" transform="translate(-861.559 109.523)"/></g><g id="그룹_168" data-name="그룹 168" transform="translate(884.814 -89.727)"><path id="패스_323" data-name="패스 323" class="cls-1" d="M874.209-90.511a9.25 9.25 0 0 1-.993-.05l.379-3.463a4 4 0 0 0 2.587-.44c1.425-2.067-1.339-5.582-1.368-5.618l2.7-2.205c.186.224 4.478 5.543 1.54 9.8-1.177 1.7-3.473 1.976-4.845 1.976Z" transform="translate(-873.216 102.286)"/></g></g></svg>