<svg xmlns="http://www.w3.org/2000/svg" width="157.287" height="132.12"><g data-name="그룹 152"><g data-name="그룹 142"><path data-name="패스 303" class="cls-1" d="M78.866 132.118c-24.578 0-43.831-9.332-43.831-21.244 0-4.755 3.028-9.211 8.758-12.882l1.935 3.018c-3.241 2.08-7.107 5.476-7.107 9.865 0 9.572 18.43 17.659 40.246 17.659s40.247-8.087 40.247-17.659c0-4.454-3.97-7.889-7.3-9.985l1.91-3.034c5.872 3.7 8.975 8.2 8.975 13.02-.001 11.913-19.255 21.242-43.833 21.242Z"/></g><g data-name="그룹 143"><path data-name="패스 304" class="cls-1" d="M66.711 119.656c-10.4-2.12-16.616-6.576-16.616-11.917h3.585c0 3.35 5.525 6.727 13.748 8.4Z"/></g><g data-name="그룹 144"><path data-name="패스 305" class="cls-1" d="M78.866 120.827v-3.585c14.843 0 25.187-5.008 25.187-9.5h3.585c.001 7.458-12.368 13.085-28.772 13.085Z"/></g><g data-name="그룹 145"><path data-name="패스 306" class="cls-1" d="M126.943 75.368c.262 2.286-1.768 3.068-5.219 5.368a43.807 43.807 0 0 0-7.888 6.775c-.4.433-.938-.025-.749-.624a37.2 37.2 0 0 1 5.879-11.766c2.815-3.378 7.569-3.306 7.977.247Z"/></g><g data-name="그룹 146"><path data-name="패스 307" class="cls-1" d="M146.439 97.376a30.56 30.56 0 0 1-8.359-1.33c-4.184-1.207-10.445-1.366-18.106-.461a2.6 2.6 0 0 1-2.844-1.685 2.985 2.985 0 0 1 1.355-3.486c6.8-4.269 16.545-9.358 24.384-9.358 6.413 0 11.951 2.454 13.779 6.1a5.73 5.73 0 0 1-.654 6.249c-1.97 2.636-5.255 3.971-9.555 3.971Zm-17.449-5.96a36.946 36.946 0 0 1 10.083 1.187c6.817 1.97 11.938 1.481 14.049-1.339a2.2 2.2 0 0 0 .318-2.5c-1.025-2.048-4.986-4.123-10.572-4.123-4.843 0-11.685 2.47-19.5 7.006q2.985-.229 5.622-.231Z"/></g><g data-name="그룹 147"><path data-name="패스 308" class="cls-1" d="M30.775 75.368c-.262 2.286 1.768 3.068 5.219 5.368a43.8 43.8 0 0 1 7.888 6.775c.4.433.938-.025.749-.624a37.2 37.2 0 0 0-5.88-11.766c-2.815-3.378-7.57-3.306-7.976.247Z"/></g><g data-name="그룹 148"><path data-name="패스 309" class="cls-1" d="M11.068 97.469c-4.391 0-7.743-1.362-9.752-4.044a5.833 5.833 0 0 1-.664-6.359c1.864-3.724 7.521-6.225 14.074-6.225 8.022 0 18 5.208 24.952 9.577a3.015 3.015 0 0 1 1.371 3.521 2.62 2.62 0 0 1-2.866 1.7c-7.971-.942-14.217-.784-18.564.474a31.217 31.217 0 0 1-8.551 1.356Zm-6.88-6.194c2.172 2.9 7.432 3.41 14.436 1.388 4.081-1.177 9.543-1.5 16.257-.961-8.073-4.709-15.151-7.276-20.156-7.276-5.739 0-9.811 2.136-10.868 4.246a2.289 2.289 0 0 0 .331 2.6Z"/></g><g data-name="그룹 149"><path data-name="패스 310" class="cls-1" d="M66.44 113.269c-8.4-11.753-14.251-33.947-15.086-44.8-1.016-13.207 1.437-23.106 7.285-29.423 4.7-5.072 11.5-7.645 20.226-7.645h.416c8.723 0 15.529 2.573 20.226 7.645 5.851 6.317 8.3 16.217 7.284 29.423-.8 10.415-6.433 32.077-14.526 43.994l-2.966-2.014c7.749-11.41 13.148-32.228 13.92-42.255.643-8.366.067-19.792-6.341-26.712-3.992-4.311-9.911-6.5-17.6-6.5h-.416c-7.685 0-13.605 2.185-17.6 6.5-6.407 6.919-6.984 18.345-6.341 26.712.705 9.169 6.131 31.376 14.429 42.987Z"/></g><g data-name="그룹 150"><path data-name="사각형 7008" class="cls-1" d="M67.29 68.45h35.854v3.585H67.29z"/></g><g data-name="그룹 151"><path data-name="패스 311" class="cls-1" d="M84.618 33.193h-3.585V5.552a1.912 1.912 0 0 0-1.442-1.936 1.771 1.771 0 0 0-1.5.384 1.792 1.792 0 0 0-.645 1.377v26.92h-3.585V5.377a5.366 5.366 0 0 1 1.931-4.128A5.408 5.408 0 0 1 80.227.087a5.466 5.466 0 0 1 4.39 5.465Z"/></g></g></svg>